<svg xmlns="http://www.w3.org/2000/svg" xmlns:xlink="http://www.w3.org/1999/xlink" viewBox="0 0 263.99 300"><defs><clipPath id="clip-path" transform="translate(0)"><rect width="264" height="300" style="fill:none"/></clipPath></defs><title>logo</title><g id="Livello_2" data-name="Livello 2"><g id="Livello_1-2" data-name="Livello 1"><g style="clip-path:url(#clip-path)"><path d="M119.31,291.78V252.16L97.2,264.61l-11.26-6.45v-14l32.79-18.66v-26L94.94,214.8V187.21L72.2,200.34v37.4l-12.44,7.72-10.51-7V213.43L14.74,232.92,0,226.71V210.9l36.22-19.83-22.65-11.4V165.2l12.86-7,32.49,19.16,22.57-13-.54-.42L57.87,150.61l22.41-13.92-22.49-13L25.3,142.77l-12.19-6.08V122.26l22-12.36L0,90.82V75l13.49-7,34.59,20V62.56L58.5,55.51l12.78,7.38-.09,38.16,23.24,13.29-.08-27,24.37,13.13v-26L85.94,55.77V41.93L97.2,35.39l22.11,12.45V8.3L132,0l12.77,8.3V47.84l22.9-12.7,11.52,7.63V55.22L145.23,74.47v26l23.2-14.18v28.35l23.91-13.05V60.84l11.52-5.37L216,60.84V86.92l35.59-19.25L264,75.26V90l-34.76,19.79L251,122V136.1l-11.27,6.25L206.33,122.6l-23.08,14.68,22.32,13.92-23,13.25,23.75,12.45,33.37-18.66,10.72,7.59v13.46l-20.93,11.78,33.33,19.83v15.56l-14.11,6.46L216,214.26V239l-11.77,6.59L192.68,239V201.46l-24.25-13.83v26l-23.2-14.17v26L178,244.2V259l-11.31,5.65-22-12.45v39.63L132,300Zm-9.09-140.92,11.85,17.52h22.07l10.18-17.52L143.6,132.2H121.49Z" transform="translate(0)" style="fill:#38b6ff"/></g></g></g></svg>